<?xml version="1.0" encoding="utf-8"?>
<!-- Generator: Adobe Illustrator 17.0.0, SVG Export Plug-In . SVG Version: 6.00 Build 0)  -->
<!DOCTYPE svg PUBLIC "-//W3C//DTD SVG 1.1//EN" "http://www.w3.org/Graphics/SVG/1.1/DTD/svg11.dtd">
<svg version="1.1" id="Capa_1" xmlns="http://www.w3.org/2000/svg" xmlns:xlink="http://www.w3.org/1999/xlink" x="0px" y="0px"
	 width="174.202px" height="37.402px" viewBox="0 0 174.202 37.402" enable-background="new 0 0 174.202 37.402"
	 xml:space="preserve">
<path opacity="0.3" fill="#FFFFFF" d="M174.202,18.702c0,10.328-8.372,18.7-18.701,18.7H18.7C8.372,37.403,0,29.03,0,18.702l0,0
	C0,8.374,8.372,0,18.7,0h136.801C165.83,0,174.202,8.374,174.202,18.702L174.202,18.702z"/>
<g>
	<path fill="#FFFFFF" d="M18.531,5.173c0.724,0,1.448,0,2.172,0c0.176,0.035,0.35,0.081,0.528,0.102
		c1.872,0.223,3.641,0.774,5.263,1.735c3.837,2.274,6.181,5.604,6.846,10.028c0.624,4.148-0.431,7.895-3.181,11.048
		c-3.378,3.873-7.706,5.501-12.793,4.658c-5.128-0.849-8.696-3.814-10.65-8.617c-0.509-1.251-0.674-2.642-0.998-3.969
		c0-0.724,0-1.448,0-2.172c0.068-0.388,0.133-0.777,0.205-1.164c0.952-5.112,3.834-8.693,8.635-10.651
		C15.809,5.661,17.202,5.496,18.531,5.173z M19.562,26.227c1.393,0,2.786,0.009,4.178-0.003c1.001-0.008,1.726-0.585,1.745-1.484
		c0.039-1.844,0.023-3.689,0.003-5.533c-0.007-0.631-0.348-1.101-0.929-1.347c-0.288-0.121-0.352-0.295-0.35-0.58
		c0.007-0.759,0.017-1.521-0.03-2.278c-0.148-2.391-2.171-4.276-4.561-4.277c-2.388-0.001-4.416,1.886-4.563,4.275
		c-0.048,0.775-0.013,1.555-0.047,2.331c-0.007,0.16-0.115,0.399-0.243,0.458c-0.781,0.359-1.053,0.98-1.047,1.794
		c0.011,1.592-0.003,3.184,0.005,4.775c0.006,1.241,0.633,1.862,1.878,1.867C16.921,26.232,18.241,26.227,19.562,26.227z"/>
	<path fill="#FFFFFF" d="M21.81,17.645c-1.481,0-2.897,0-4.338,0c0-0.947-0.093-1.888,0.024-2.803
		c0.134-1.044,1.23-1.795,2.249-1.707c1.141,0.098,1.996,0.947,2.049,2.069c0.029,0.63,0.012,1.262,0.015,1.893
		C21.811,17.259,21.81,17.421,21.81,17.645z"/>
	<path fill="#FFFFFF" d="M18.889,24.388c0-0.245-0.01-0.459,0.002-0.671c0.027-0.491-0.019-0.909-0.418-1.312
		c-0.49-0.496-0.358-1.372,0.155-1.86c0.54-0.513,1.34-0.532,1.92-0.045c0.538,0.451,0.731,1.344,0.25,1.843
		c-0.469,0.486-0.467,1.002-0.454,1.572c0.003,0.141,0,0.283,0,0.472C19.861,24.388,19.423,24.388,18.889,24.388z"/>
</g>
</svg>
